# xmcd
#
# Track frame offsets: 
#        150
#        13885
#        26285
#        37992
#        48532
#        60847
#        70580
#        81020
#        93395
#        104662
#        114030
#        125040
#        135365
#        148695
#        161367
#        172220
#
# Disc length: 2445 seconds
#
# Revision: 6
# Processed by: cddbd v1.5.1PL0 Copyright (c) Steve Scherf et al.
# Submitted via: ExactAudioCopy v0.95a5
#
DISCID=cc098b10
DTITLE=Various Artist - House Rockin' and Hip Shakin'- The Best of Exce
DTITLE=llo Blues
DYEAR=1997
DGENRE=Blues
TTITLE0=Slim Harpo - I'm a King Bee
TTITLE1=Arthur Gunter - Baby Let's Play House
TTITLE2=Blue Rockers - Calling All Cows
TTITLE3=Jerry McCain - That's What They Want
TTITLE4=Lazy Lester - I'm a Lover Not a Fighter
TTITLE5=Jerry McCain - My Next Door Neighbor
TTITLE6=Leroy Washington - Wild Cherry
TTITLE7=Lazy Lester - Sugar Coated Love
TTITLE8=Lightin' Slim - Rooster Blues
TTITLE9=Lonesome Sundown - Gonna Stick To You Baby
TTITLE10=Silas Hogan - Trouble At Home Blues
TTITLE11=Jimmy Anderson - Naggin'
TTITLE12=Whispering Smith - I Tried So Hard
TTITLE13=Leroy Washington - My True Life
TTITLE14=Lightin' Slim - I'm Evil
TTITLE15=Slim Harpo - Shake Your Hips
EXTD=LABEL =Hip-O Records - Universal Special Markets, Inc.\nID =HIPD
EXTD=40071\nUPC =076744-007124\nCOPYRIGHT =1997
EXTT0=
EXTT1=
EXTT2=
EXTT3=
EXTT4=
EXTT5=
EXTT6=
EXTT7=
EXTT8=
EXTT9=
EXTT10=
EXTT11=
EXTT12=
EXTT13=
EXTT14=
EXTT15=
PLAYORDER=
